<svg width="21" height="20" viewBox="0 0 21 20" fill="none" xmlns="http://www.w3.org/2000/svg">
<path d="M0.75 0.75H2.136C2.646 0.75 3.091 1.093 3.223 1.585L3.606 3.022M3.606 3.022C9.17664 2.86589 14.7419 3.48515 20.142 4.862C19.318 7.316 18.339 9.7 17.218 12H6M3.606 3.022L6 12M6 12C5.20435 12 4.44129 12.3161 3.87868 12.8787C3.31607 13.4413 3 14.2044 3 15H18.75M4.5 18C4.5 18.1989 4.42098 18.3897 4.28033 18.5303C4.13968 18.671 3.94891 18.75 3.75 18.75C3.55109 18.75 3.36032 18.671 3.21967 18.5303C3.07902 18.3897 3 18.1989 3 18C3 17.8011 3.07902 17.6103 3.21967 17.4697C3.36032 17.329 3.55109 17.25 3.75 17.25C3.94891 17.25 4.13968 17.329 4.28033 17.4697C4.42098 17.6103 4.5 17.8011 4.5 18ZM17.25 18C17.25 18.1989 17.171 18.3897 17.0303 18.5303C16.8897 18.671 16.6989 18.75 16.5 18.75C16.3011 18.75 16.1103 18.671 15.9697 18.5303C15.829 18.3897 15.75 18.1989 15.75 18C15.75 17.8011 15.829 17.6103 15.9697 17.4697C16.1103 17.329 16.3011 17.25 16.5 17.25C16.6989 17.25 16.8897 17.329 17.0303 17.4697C17.171 17.6103 17.25 17.8011 17.25 18Z" stroke="#181818" stroke-width="1.5" stroke-linecap="round" stroke-linejoin="round"/>
</svg>
